HIERARCHY
ROOT Hips
{
  OFFSET 0 0 0
  CHANNELS 6 Xposition Yposition Zposition Zrotation Yrotation Xrotation
  JOINT LeftThigh
  {
    OFFSET 8.409438 0 -5.917753
    CHANNELS 3 Zrotation Yrotation Xrotation
    JOINT LeftLeg
    {
      OFFSET 0 0 -42.358652
      CHANNELS 3 Zrotation Yrotation Xrotation
      JOINT LeftFoot
      {
        OFFSET 0 0 -39.357303
        CHANNELS 3 Zrotation Yrotation Xrotation
      }
    }
  }
  JOINT RightThigh
  {
    OFFSET -8.409438 0 -5.917753
    CHANNELS 3 Zrotation Yrotation Xrotation
    JOINT RightLeg
    {
      OFFSET 0 0 -42.358652
      CHANNELS 3 Zrotation Yrotation Xrotation
      JOINT RightFoot
      {
        OFFSET 0 0 -39.357303
        CHANNELS 3 Zrotation Yrotation Xrotation
      }
    }
  }
  JOINT SpineLow
  {
    OFFSET 0 0 4.719101
    CHANNELS 3 Zrotation Yrotation Xrotation
    JOINT SpineMid
    {
      OFFSET 0 0 12.899191
      CHANNELS 3 Zrotation Yrotation Xrotation
      JOINT Chest
      {
        OFFSET 0 0 12.899191
        CHANNELS 3 Zrotation Yrotation Xrotation
        JOINT LeftShoulder
        {
          OFFSET 7.550562 1.41573 9.438202
          CHANNELS 3 Zrotation Yrotation Xrotation
          JOINT LeftArm
          {
            OFFSET 9.155056 0 4.247191
            CHANNELS 3 Zrotation Yrotation Xrotation
            JOINT LeftForearm
            {
              OFFSET 0 0 25.771955
              CHANNELS 3 Zrotation Yrotation Xrotation
              JOINT LeftHand
              {
                OFFSET 0 0 25.197169
                CHANNELS 3 Zrotation Yrotation Xrotation
              }
            }
          }
        }
        JOINT RightShoulder
        {
          OFFSET -7.550562 1.41573 9.438202
          CHANNELS 3 Zrotation Yrotation Xrotation
          JOINT RightArm
          {
            OFFSET -9.155056 0 4.247191
            CHANNELS 3 Zrotation Yrotation Xrotation
            JOINT RightForearm
            {
              OFFSET 0 0 -25.771955
              CHANNELS 3 Zrotation Yrotation Xrotation
              JOINT RightHand
              {
                OFFSET 0 0 -25.197169
                CHANNELS 3 Zrotation Yrotation Xrotation
              }
            }
          }
        }
        JOINT Neck
        {
          OFFSET 0 0 15.101124
          CHANNELS 3 Zrotation Yrotation Xrotation
          JOINT Head
          {
            OFFSET 0 0 11.325843
            CHANNELS 3 Zrotation Yrotation Xrotation
            End Site
            {
              OFFSET 0 0 14.157303
            }
          }
        }
      }
    }
  }
}
MOTION
Frames: 10
Frame Time: 0.01
0.0  101.685394  0.0  0.133361  30.961719  -101.958602  11.542802  -18.448125  -0.572801  -10.83622  8.2504  24.745888  2.362241  2.395018  4.295283  -21.97621  18.686757  4.725931  -10.620236  3.09681  17.643617  5.773067  4.956098  -1.286645  -0.456482  0.861615  1.235604  -1.203824  2.377664  3.362327  -1.203824  2.377664  3.362327  -5.47904  19.832456  30.119671  154.00661  82.450664  -127.571518  -47.211433  25.023936  79.726552  65.355136  4.032085  10.693613  16.44367  -20.003242  15.852502  121.015967  67.294755  42.637808  -18.779045  -26.657323  -112.054531  83.916959  7.400608  37.52781  1.265997  -4.526567  -0.049378  0.948637  -3.395045  -0.027621  
0.0  101.685394  0.0  0.01676  31.278225  -102.012832  10.958428  -18.579701  -1.010888  -10.886072  8.506906  25.269165  2.523447  2.609395  4.528216  -22.958898  18.825202  4.294353  -10.569891  3.138772  18.162366  6.249253  5.184855  -1.273792  -0.527136  0.873627  1.238603  -1.396259  2.414127  3.367743  -1.396259  2.414127  3.367743  -5.283547  19.699196  29.889982  152.845219  82.603621  -128.725474  -46.93518  25.510176  80.658913  65.463276  4.78817  8.840981  16.534601  -20.036135  16.15196  119.984624  67.769957  41.42644  -18.922789  -25.843415  -111.865136  84.729565  6.478151  38.196758  1.28426  -4.518007  -0.010131  0.96262  -3.388544  0.001917  
0.0  101.685394  0.0  -0.174027  31.375626  -102.210848  10.550348  -18.788613  -1.375282  -10.80775  8.839029  26.086668  2.602397  2.708221  4.543305  -23.371764  18.747673  4.109027  -10.272713  3.217265  18.770666  6.295947  5.387419  -1.293077  -0.566899  0.870299  1.265567  -1.504136  2.407649  3.440075  -1.504136  2.407649  3.440074  -5.066692  19.50815  29.624274  152.450565  82.662091  -129.258949  -46.798492  25.35743  80.556712  64.825511  4.826186  7.941235  16.646726  -20.060834  16.362225  119.306232  68.121305  40.471313  -19.166904  -25.293039  -111.536951  84.762789  6.402885  38.560737  1.337399  -4.533019  0.004413  1.002558  -3.399774  0.013247  
0.0  101.685394  0.0  -0.372301  31.510824  -102.41196  10.197261  -19.091429  -1.743845  -10.759437  9.280049  26.947368  2.840247  2.786629  4.579071  -24.06736  18.758065  3.706618  -9.880389  3.272819  19.514284  6.441736  5.628535  -1.285339  -0.5992  0.865039  1.306979  -1.591188  2.395926  3.552237  -1.591188  2.395926  3.552237  -5.123781  19.287696  29.244857  151.490499  82.739939  -130.009958  -46.881696  25.070016  80.230418  64.307782  4.867351  7.181205  16.747206  -20.111639  16.456934  118.965358  68.411786  39.906249  -19.431974  -25.067295  -111.158394  84.933065  6.459973  38.959266  1.285456  -4.531575  -0.040217  0.96329  -3.398783  -0.020598  
0.0  101.685394  0.0  -0.602348  31.53885  -102.671269  9.820455  -19.379603  -2.115757  -10.677911  9.716455  27.843189  3.002169  2.883464  4.543559  -24.210101  18.658364  3.497208  -9.645409  3.321154  20.342315  6.397985  5.855498  -1.315333  -0.612994  0.851213  1.357781  -1.627793  2.360112  3.690945  -1.627793  2.360112  3.690945  -5.120408  19.058842  28.937603  151.20839  82.859909  -130.384125  -46.750239  25.238795  80.233452  63.916244  4.888874  6.635659  16.796116  -20.112132  16.496855  118.62771  68.672379  39.267716  -19.666604  -25.172459  -110.637594  85.039195  6.674939  39.149827  1.270088  -4.556073  -0.109721  0.951244  -3.4173  -0.072761  
0.0  101.685394  0.0  -0.814757  31.610318  -102.913008  9.767009  -19.763367  -2.459371  -10.684232  10.15832  28.76099  3.069312  2.96599  4.442564  -24.53876  18.630644  3.125918  -9.400999  3.380659  21.298852  6.355485  6.083911  -1.368514  -0.619021  0.833  1.413549  -1.643292  2.312044  3.843618  -1.643292  2.312044  3.843618  -5.29537  18.868697  28.607068  149.98738  83.119619  -131.4022  -46.923147  25.287848  80.045304  63.754806  4.92048  6.36283  16.877751  -20.098302  16.508012  118.172715  69.034889  38.745482  -21.184569  -24.145872  -108.638732  83.411043  7.665007  38.409883  1.173799  -4.546592  -0.215261  0.878282  -3.410372  -0.152613  
0.0  101.685394  0.0  -1.046313  31.551807  -103.186712  9.813784  -20.141022  -2.87118  -10.677941  10.55129  29.692861  2.968181  3.089389  4.330228  -24.39231  18.508853  2.881702  -9.343714  3.460446  22.311144  6.276371  6.31153  -1.405294  -0.629228  0.811477  1.462478  -1.670731  2.255041  3.977528  -1.670731  2.255041  3.977528  -5.282853  18.729696  28.387908  149.057224  83.416426  -132.385183  -46.96984  25.683518  80.102069  63.863094  4.984996  6.296108  16.972431  -20.024525  16.566826  117.537437  69.448534  37.972554  -21.142122  -24.976115  -108.195205  83.804581  7.72432  38.285142  1.199045  -4.55902  -0.29162  0.896629  -3.419853  -0.209639  
0.0  101.685394  0.0  -1.250551  31.518734  -103.396785  10.006211  -20.539173  -3.317068  -10.906203  11.014712  30.458789  2.863034  3.249487  4.256521  -24.465476  18.449228  2.411816  -9.497529  3.586349  23.401756  6.422548  6.603905  -1.40682  -0.627509  0.800061  1.503774  -1.665299  2.224767  4.090756  -1.665299  2.224767  4.090756  -5.463932  18.563313  28.202262  148.115556  83.718426  -133.309646  -47.120967  26.061664  80.095847  63.782788  4.705062  6.909933  17.025622  -20.030436  16.643945  116.974179  69.984702  37.466801  -21.007983  -26.140781  -107.82291  84.347157  7.768142  38.07852  1.124305  -4.584958  -0.370912  0.839991  -3.439416  -0.269586  
0.0  101.685394  0.0  -1.477922  31.419819  -103.582919  10.331696  -20.977949  -3.83129  -11.055538  11.461903  31.345912  2.714274  3.3911  4.148848  -24.202946  18.269402  1.999941  -9.593907  3.718558  24.58693  6.394486  6.880662  -1.422613  -0.609958  0.790298  1.536038  -1.616839  2.197785  4.179779  -1.616839  2.197784  4.179779  -5.681737  18.39893  28.09433  147.51765  84.033362  -133.975672  -47.256739  26.647772  80.172627  64.316841  4.82367  7.144533  16.870378  -20.033072  16.711285  116.498402  70.497894  36.865802  -20.839251  -27.404754  -107.481046  84.891114  7.784134  37.89555  1.052776  -4.676554  -0.435104  0.785808  -3.508179  -0.318076  
0.0  101.685394  0.0  -1.678496  31.464138  -103.678671  10.563768  -21.356744  -4.479434  -11.473225  12.026902  32.083485  2.637936  3.588187  4.103555  -24.186938  18.117243  1.390064  -10.074097  3.964066  25.791947  6.575075  7.206886  -1.413306  -0.616596  0.800875  1.556066  -1.633639  2.227582  4.234084  -1.633639  2.227583  4.234084  -6.017401  18.161451  28.033075  147.831213  84.332614  -133.714081  -47.48175  27.267273  80.194186  64.231789  4.609663  8.627221  16.798801  -20.161037  16.753459  116.266837  71.019547  36.582306  -20.77703  -28.642237  -107.184553  85.317667  7.812114  37.660643  0.890803  -4.778519  -0.49525  0.663835  -3.584622  -0.364243  
